<?xml version="1.0" ?><!DOCTYPE svg  PUBLIC '-//W3C//DTD SVG 1.1//EN'  'http://www.w3.org/Graphics/SVG/1.1/DTD/svg11.dtd'><svg height="512px" style="enable-background:new 0 0 512 512;" version="1.1" viewBox="0 0 512 512" width="512px" xml:space="preserve" xmlns="http://www.w3.org/2000/svg" xmlns:xlink="http://www.w3.org/1999/xlink"><g id="_x36_5_x2C__design_x2C__Graphic_x2C__Tool_x2C__Software_x2C__web_Designing"><g><path d="M356.57,76.547H81.162c-0.223,0-0.396,0.074-0.546,0.224    c-0.125,0.124-0.223,0.322-0.223,0.521v252.331h276.822c10.224,0,19.554-4.194,26.302-10.942    c6.749-6.75,10.918-16.08,10.918-26.303V114.438c0-10.422-4.242-19.9-11.116-26.774C376.446,80.814,366.967,76.547,356.57,76.547     M364.906,108.93H161.386v193.993h203.521V108.93z M158.333,102.824H367.96c1.687,0,3.052,1.39,3.052,3.053v200.098    c0,1.688-1.365,3.053-3.052,3.053H158.333c-1.687,0-3.052-1.365-3.052-3.053V105.877    C155.281,104.214,156.646,102.824,158.333,102.824z M135.801,126.076h-42.48v20.594h42.48V126.076z M93.321,173.346h42.48V152.75    h-42.48V173.346z M93.321,179.449v20.57h42.48v-20.57H93.321z M141.906,176.473v26.6c0,1.688-1.365,3.053-3.052,3.053H90.269    c-1.688,0-3.053-1.365-3.053-3.053v-26.6v-0.075v-0.075v-26.525v-0.074v-0.1v-26.6c0-1.688,1.365-3.053,3.053-3.053h48.585    c1.687,0,3.052,1.365,3.052,3.053v26.6v0.1v0.074v26.525v0.075V176.473z M38.581,119.053H32.85v132.232h5.731V119.053z     M50.765,119.053h-5.012v132.232h5.012V119.053z M58.333,251.285V119.053h-7.568v132.232H58.333z M27.391,257.39l14.765,35.731    l14.763-35.731C47.093,257.39,37.242,257.39,27.391,257.39z M26.001,119.053v132.232h6.849V119.053H26.001z M26.001,98.383v14.565    h32.331V98.383c0-3.994-1.662-7.643-4.292-10.273c-2.63-2.63-6.278-4.268-10.272-4.268h-3.201c-3.946,0-7.519,1.588-10.149,4.119    l-0.125,0.148C27.639,90.74,26.001,94.389,26.001,98.383z M268.604,200.467h-5.384h-0.075h-0.074h-5.385v5.385v0.074v0.1v5.385    h5.385h0.074h0.075h5.384v-5.385v-0.1v-0.074V200.467z M337.688,200.467H326.77v5.385v0.074v0.1v5.385h10.918V200.467z     M268.604,280.491v-10.942h-5.384h-0.075h-0.074h-5.385v10.942H268.604z M199.548,200.467h-10.942v10.943h10.942v-5.385v-0.1    v-0.074V200.467z M268.604,142.328v-10.942h-10.918v10.942h5.385h0.074h0.075H268.604z M274.709,128.333v17.048    c0,1.688-1.365,3.051-3.052,3.051h-5.459v45.932h5.459c1.687,0,3.052,1.365,3.052,3.052v5.459h45.955v-5.459    c0-1.687,1.365-3.052,3.052-3.052h17.022c1.688,0,3.052,1.365,3.052,3.052v17.046c0,1.688-1.363,3.053-3.052,3.053h-17.022    c-1.687,0-3.052-1.365-3.052-3.053v-5.482h-45.955v5.482c0,1.688-1.365,3.053-3.052,3.053h-5.459v45.931h5.459    c1.687,0,3.052,1.364,3.052,3.052v17.047c0,1.688-1.365,3.052-3.052,3.052h-17.022c-1.686,0-3.051-1.364-3.051-3.052v-17.047    c0-1.688,1.365-3.052,3.051-3.052h5.459v-45.931h-5.459c-1.686,0-3.051-1.365-3.051-3.053v-5.482h-45.956v5.482    c0,1.688-1.365,3.053-3.053,3.053h-17.021c-1.688,0-3.051-1.365-3.051-3.053v-17.046c0-1.687,1.363-3.052,3.051-3.052h17.021    c1.688,0,3.053,1.365,3.053,3.052v5.459h45.956v-5.459c0-1.687,1.365-3.052,3.051-3.052h5.459v-45.932h-5.459    c-1.686,0-3.051-1.363-3.051-3.051v-17.048c0-1.687,1.365-3.052,3.051-3.052h17.022    C273.344,125.281,274.709,126.646,274.709,128.333z M454.262,276.074c-0.919,0-1.762,0.396-2.383,1.018    c-0.619,0.596-0.993,1.439-0.993,2.357v8.164h6.751v-8.164c0-0.869-0.323-1.663-0.844-2.233l-0.149-0.124    C456.049,276.471,455.18,276.074,454.262,276.074z M460.764,293.717h-0.075h-12.854h-0.074h-25.236v34.814    c0,8.734,3.574,16.674,9.33,22.406c5.062,5.087,11.837,8.461,19.354,9.181v-52.308c0-1.688,1.365-3.051,3.053-3.051    c1.687,0,3.052,1.363,3.052,3.051v52.308c7.52-0.72,14.293-4.094,19.355-9.156c5.757-5.757,9.33-13.696,9.33-22.431v-34.814    H460.764z M454.262,269.995c2.631,0,4.987,1.067,6.7,2.778l0.198,0.225c1.612,1.687,2.579,3.969,2.579,6.451v8.164h22.26v-0.521    c0-8.734-3.573-16.65-9.33-22.406c-5.758-5.758-13.673-9.33-22.407-9.33s-16.675,3.572-22.407,9.305    c-5.756,5.757-9.33,13.697-9.33,22.432v0.521h22.259v-8.164c0-2.581,1.066-4.963,2.779-6.676    C449.273,271.063,451.656,269.995,454.262,269.995z M124.438,231.905c-2.532-2.505-6.029-4.094-9.875-4.094    c-3.847,0-7.346,1.563-9.876,4.094c-2.532,2.531-4.069,6.006-4.069,9.877c0,3.845,1.562,7.345,4.069,9.876    c2.53,2.506,6.029,4.094,9.876,4.094c3.846,0,7.343-1.564,9.875-4.094c2.53-2.531,4.094-6.031,4.094-9.876    C128.531,237.936,126.968,234.437,124.438,231.905z M114.562,221.732c5.533,0,10.57,2.232,14.192,5.855    c3.624,3.648,5.857,8.66,5.857,14.194c0,5.532-2.234,10.545-5.857,14.168c-3.646,3.647-8.66,5.881-14.192,5.881    c-5.535,0-10.546-2.233-14.17-5.855c-3.646-3.623-5.88-8.661-5.88-14.193c0-5.509,2.234-10.521,5.88-14.169    C104.041,223.965,109.052,221.732,114.562,221.732z M124.164,298.978c-2.457,2.481-5.856,3.995-9.602,3.995    c-3.748,0-7.147-1.514-9.604-3.971s-3.994-5.881-3.994-9.627c0-3.723,1.537-7.122,3.994-9.579    c2.481-2.481,5.856-3.995,9.604-3.995c3.746,0,7.145,1.514,9.602,3.971c2.457,2.457,3.996,5.855,3.996,9.604    C128.16,293.121,126.621,296.521,124.164,298.978z M114.562,296.868c2.084,0,3.944-0.843,5.285-2.184    c1.363-1.34,2.208-3.226,2.208-5.31c0-2.06-0.844-3.922-2.208-5.285c-1.341-1.34-3.227-2.185-5.285-2.185    c-2.06,0-3.947,0.819-5.31,2.185c-1.341,1.339-2.185,3.226-2.185,5.285c0,2.084,0.844,3.945,2.209,5.31    C110.615,296.025,112.502,296.868,114.562,296.868z M112.749,419.25c-1.686,0-3.051-1.365-3.051-3.053    c0-1.662,1.365-3.052,3.051-3.052h195.483c1.688,0,3.053,1.39,3.053,3.052c0,1.688-1.365,3.053-3.053,3.053H112.749z     M398.033,413.146c1.688,0,3.053,1.39,3.053,3.052c0,1.688-1.365,3.053-3.053,3.053h-55.582c-1.688,0-3.053-1.365-3.053-3.053    c0-1.662,1.365-3.052,3.053-3.052H398.033z M329.001,429.35c1.688,0,3.054,1.364,3.054,3.051c0,1.688-1.365,3.053-3.054,3.053    H203.022c-1.662,0-3.052-1.365-3.052-3.053c0-1.687,1.39-3.051,3.052-3.051H329.001z M43.717,435.453    c-1.686,0-3.051-1.365-3.051-3.053c0-1.687,1.365-3.051,3.051-3.051h55.608c1.664,0,3.053,1.364,3.053,3.051    c0,1.688-1.39,3.053-3.053,3.053H43.717z M148.358,435.453c-1.688,0-3.053-1.365-3.053-3.053c0-1.687,1.365-3.051,3.053-3.051    h25.333c1.688,0,3.053,1.364,3.053,3.051c0,1.688-1.365,3.053-3.053,3.053H148.358z M61.882,351.656v46.006h14.192v-9.951    c0-1.662,1.365-3.052,3.054-3.052c1.686,0,3.051,1.39,3.051,3.052v9.951h11.415V378.01c0-1.688,1.364-3.053,3.052-3.053    s3.051,1.364,3.051,3.053v19.652h10.745v-9.951c0-1.662,1.365-3.052,3.053-3.052c1.686,0,3.051,1.39,3.051,3.052v9.951h11.415    V378.01c0-1.688,1.365-3.053,3.052-3.053c1.664,0,3.051,1.364,3.051,3.053v19.652h10.745v-9.951c0-1.662,1.365-3.052,3.053-3.052    c1.686,0,3.051,1.39,3.051,3.052v9.951h11.39V378.01c0-1.688,1.39-3.053,3.052-3.053c1.688,0,3.051,1.364,3.051,3.053v19.652    h10.771v-9.951c0-1.662,1.363-3.052,3.051-3.052s3.052,1.39,3.052,3.052v9.951h11.39V378.01c0-1.688,1.365-3.053,3.052-3.053    c1.688,0,3.053,1.364,3.053,3.053v19.652h10.769v-9.951c0-1.662,1.365-3.052,3.051-3.052c1.664,0,3.052,1.39,3.052,3.052v9.951    h11.39V378.01c0-1.688,1.365-3.053,3.051-3.053c1.688,0,3.053,1.364,3.053,3.053v19.652h10.745v-9.951    c0-1.662,1.39-3.052,3.051-3.052c1.688,0,3.052,1.39,3.052,3.052v9.951h11.414V378.01c0-1.688,1.365-3.053,3.054-3.053    c1.687,0,3.051,1.364,3.051,3.053v19.652h10.745v-9.951c0-1.662,1.365-3.052,3.051-3.052c1.688,0,3.054,1.39,3.054,3.052v9.951    h11.413V378.01c0-1.688,1.365-3.053,3.053-3.053c1.662,0,3.027,1.364,3.027,3.053v19.652h10.769v-9.951    c0-1.662,1.365-3.052,3.052-3.052c1.688,0,3.054,1.39,3.054,3.052v9.951h11.389V378.01c0-1.688,1.389-3.053,3.053-3.053    c1.687,0,3.052,1.364,3.052,3.053v19.652h12.927v-46.006H61.882z" style="fill-rule:evenodd;clip-rule:evenodd;"/></g></g><g id="Layer_1"/></svg>